{
  "source": "C:\\Users\\Peter\\Desktop\\stuff\\MIUN\\quantitative_research\\video_compression\\videos\\HEVC_CLASS_B\\ParkScene_1920x1080_24.y4m",
  "output": "C:\\Users\\Peter\\Desktop\\stuff\\MIUN\\quantitative_research\\video_compression\\compressed_videos\\HEVC_CLASS_B\\av1\\2\\ParkScene_1920x1080_24_av1.mkv",
  "codec": "av1",
  "ok": "Input #0, yuv4mpegpipe, from 'C:\\Users\\Peter\\Desktop\\stuff\\MIUN\\quantitative_research\\video_compression\\videos\\HEVC_CLASS_B\\ParkScene_1920x1080_24.y4m':\n  Duration: 00:00:10.00, start: 0.000000, bitrate: 597198 kb/s\n  Stream #0:0: Video: rawvideo (I420 / 0x30323449), yuv420p(progressive), 1920x1080, 24 fps, 24 tbr, 24 tbn\n[out#0/matroska @ 000001f1c6168ec0] Codec AVOption b:a (set bitrate (in bits/s)) has not been used for any stream. The most likely reason is either wrong type (e.g. a video option with no video streams) or that it is a private option of some decoder which was not actually used for any stream.\nStream mapping:\n  Stream #0:0 -> #0:0 (rawvideo (native) -> av1 (libsvtav1))\nPress [q] to stop, [?] for help\nSvt[info]: -------------------------------------------\nSvt[info]: SVT [version]:\tSVT-AV1 Encoder Lib v3.1.0-19-g6ecfe8ec\nSvt[info]: SVT [build]  :\tGCC 15.2.0\t 64 bit\nSvt[info]: LIB Build date: Aug 17 2025 11:37:13\nSvt[info]: -------------------------------------------\n[libsvtav1 @ 000001f1c616c080] Specified chroma sample location center is unsupported on the AV1 bit stream level. Usage of a container that allows passing this information - such as Matroska - is recommended.\nSvt[info]: Level of Parallelism: 5\nSvt[info]: Number of PPCS 93\nSvt[info]: [asm level on system : up to avx2]\nSvt[info]: [asm level selected : up to avx2]\nSvt[info]: -------------------------------------------\nSvt[info]: SVT [config]: main profile\ttier (auto)\tlevel (auto)\nSvt[info]: SVT [config]: width / height / fps numerator / fps denominator \t\t: 1920 / 1080 / 24 / 1\nSvt[info]: SVT [config]: bit-depth / color format \t\t\t\t\t: 8 / YUV420\nSvt[info]: SVT [config]: preset / tune / pred struct \t\t\t\t\t: 4 / PSNR / random access\nSvt[info]: SVT [config]: gop size / mini-gop size / key-frame type \t\t\t: 161 / 16 / key frame\nSvt[info]: SVT [config]: BRC mode / target bitrate (kbps)\t\t\t\t: VBR / 2000 \nSvt[info]: SVT [config]: AQ mode / Variance Boost \t\t\t\t\t: 2 / 0\nSvt[info]: SVT [config]: sharpness / luminance-based QP bias \t\t\t\t: 0 / 0\nSvt[info]: SVT [config]: QP scale compress strength \t\t\t\t\t: 0\nSvt[info]: -------------------------------------------\nOutput #0, matroska, to 'C:\\Users\\Peter\\Desktop\\stuff\\MIUN\\quantitative_research\\video_compression\\compressed_videos\\HEVC_CLASS_B\\av1\\2\\ParkScene_1920x1080_24_av1.mkv':\n  Metadata:\n    encoder         : Lavf62.3.100\n  Stream #0:0: Video: av1 (AV01 / 0x31305641), yuv420p(tv, progressive), 1920x1080, q=2-31, 2000 kb/s, 24 fps, 1k tbn\n    Metadata:\n      encoder         : Lavc62.11.100 libsvtav1\n    Side data:\n      cpb: bitrate max/min/avg: 0/0/2000000 buffer size: 2000000 vbv_delay: N/A\nframe=    0 fps=0.0 q=0.0 size=       0KiB time=N/A bitrate=N/A speed=N/A elapsed=0:00:02.37    \nframe=    0 fps=0.0 q=0.0 size=       0KiB time=N/A bitrate=N/A speed=N/A elapsed=0:00:03.11    \nframe=    0 fps=0.0 q=0.0 size=       0KiB time=N/A bitrate=N/A speed=N/A elapsed=0:00:04.22    \nframe=    0 fps=0.0 q=0.0 size=       0KiB time=N/A bitrate=N/A speed=N/A elapsed=0:00:04.74    \nframe=    0 fps=0.0 q=0.0 size=       0KiB time=N/A bitrate=N/A speed=N/A elapsed=0:00:05.37    \nframe=    0 fps=0.0 q=0.0 size=       0KiB time=N/A bitrate=N/A speed=N/A elapsed=0:00:05.97    \nframe=    0 fps=0.0 q=0.0 size=       0KiB time=N/A bitrate=N/A speed=N/A elapsed=0:00:06.54    \nframe=    0 fps=0.0 q=0.0 size=       0KiB time=N/A bitrate=N/A speed=N/A elapsed=0:00:07.08    \nframe=    0 fps=0.0 q=0.0 size=       0KiB time=N/A bitrate=N/A speed=N/A elapsed=0:00:07.64    \nframe=    0 fps=0.0 q=0.0 size=       0KiB time=N/A bitrate=N/A speed=N/A elapsed=0:00:08.24    \nframe=    0 fps=0.0 q=0.0 size=       0KiB time=N/A bitrate=N/A speed=N/A elapsed=0:00:08.76    \nframe=    0 fps=0.0 q=0.0 size=       0KiB time=N/A bitrate=N/A speed=N/A elapsed=0:00:09.27    \nframe=    0 fps=0.0 q=0.0 size=       0KiB time=N/A bitrate=N/A speed=N/A elapsed=0:00:09.79    \nframe=    0 fps=0.0 q=0.0 size=       0KiB time=N/A bitrate=N/A speed=N/A elapsed=0:00:10.30    \nframe=    0 fps=0.0 q=0.0 size=       0KiB time=N/A bitrate=N/A speed=N/A elapsed=0:00:10.82    \nframe=    0 fps=0.0 q=0.0 size=       0KiB time=N/A bitrate=N/A speed=N/A elapsed=0:00:11.35    \nframe=    0 fps=0.0 q=0.0 size=       0KiB time=N/A bitrate=N/A speed=N/A elapsed=0:00:11.87    \nframe=    0 fps=0.0 q=0.0 size=       0KiB time=N/A bitrate=N/A speed=N/A elapsed=0:00:12.46    \nframe=    0 fps=0.0 q=0.0 size=       0KiB time=N/A bitrate=N/A speed=N/A elapsed=0:00:12.99    \nframe=    0 fps=0.0 q=0.0 size=       0KiB time=N/A bitrate=N/A speed=N/A elapsed=0:00:13.53    \nframe=    0 fps=0.0 q=0.0 size=       0KiB time=N/A bitrate=N/A speed=N/A elapsed=0:00:14.08    \nframe=    0 fps=0.0 q=0.0 size=       0KiB time=N/A bitrate=N/A speed=N/A elapsed=0:00:14.65    \nframe=    0 fps=0.0 q=0.0 size=       0KiB time=N/A bitrate=N/A speed=N/A elapsed=0:00:15.18    \nframe=    0 fps=0.0 q=0.0 size=       0KiB time=N/A bitrate=N/A speed=N/A elapsed=0:00:15.69    \nframe=    0 fps=0.0 q=0.0 size=       0KiB time=N/A bitrate=N/A speed=N/A elapsed=0:00:16.26    \nframe=    0 fps=0.0 q=0.0 size=       0KiB time=N/A bitrate=N/A speed=N/A elapsed=0:00:16.80    \nframe=    0 fps=0.0 q=0.0 size=       0KiB time=N/A bitrate=N/A speed=N/A elapsed=0:00:17.34    \nframe=    0 fps=0.0 q=0.0 size=       0KiB time=N/A bitrate=N/A speed=N/A elapsed=0:00:17.94    \nframe=    0 fps=0.0 q=0.0 size=       0KiB time=N/A bitrate=N/A speed=N/A elapsed=0:00:18.50    \nframe=    0 fps=0.0 q=0.0 size=       0KiB time=N/A bitrate=N/A speed=N/A elapsed=0:00:19.04    \nframe=    0 fps=0.0 q=0.0 size=       0KiB time=N/A bitrate=N/A speed=N/A elapsed=0:00:19.57    \nframe=    0 fps=0.0 q=0.0 size=       0KiB time=N/A bitrate=N/A speed=N/A elapsed=0:00:20.11    \nframe=    0 fps=0.0 q=0.0 size=       0KiB time=N/A bitrate=N/A speed=N/A elapsed=0:00:20.64    \nframe=    1 fps=0.0 q=16.0 size=       1KiB time=00:00:00.00 bitrate=N/A speed=   0x elapsed=0:00:21.17    \nframe=    1 fps=0.0 q=16.0 size=       1KiB time=00:00:00.00 bitrate=N/A speed=   0x elapsed=0:00:21.68    \nframe=    1 fps=0.0 q=16.0 size=       1KiB time=00:00:00.00 bitrate=N/A speed=   0x elapsed=0:00:22.22    \nframe=    1 fps=0.0 q=16.0 size=       1KiB time=00:00:00.00 bitrate=N/A speed=   0x elapsed=0:00:22.75    \nframe=    1 fps=0.0 q=16.0 size=       1KiB time=00:00:00.00 bitrate=N/A speed=   0x elapsed=0:00:23.28    \nframe=    1 fps=0.0 q=16.0 size=       1KiB time=00:00:00.00 bitrate=N/A speed=   0x elapsed=0:00:23.82    \nframe=    1 fps=0.0 q=16.0 size=       1KiB time=00:00:00.00 bitrate=N/A speed=   0x elapsed=0:00:24.35    \nframe=    1 fps=0.0 q=16.0 size=       1KiB time=00:00:00.00 bitrate=N/A speed=   0x elapsed=0:00:24.92    \nframe=    1 fps=0.0 q=16.0 size=       1KiB time=00:00:00.00 bitrate=N/A speed=   0x elapsed=0:00:25.45    \nframe=    1 fps=0.0 q=16.0 size=       1KiB time=00:00:00.00 bitrate=N/A speed=   0x elapsed=0:00:25.99    \nframe=    1 fps=0.0 q=16.0 size=       1KiB time=00:00:00.00 bitrate=N/A speed=   0x elapsed=0:00:26.53    \nframe=    1 fps=0.0 q=16.0 size=       1KiB time=00:00:00.00 bitrate=N/A speed=   0x elapsed=0:00:27.05    \nframe=    1 fps=0.0 q=16.0 size=       1KiB time=00:00:00.00 bitrate=N/A speed=   0x elapsed=0:00:27.58    \nframe=    1 fps=0.0 q=16.0 size=       1KiB time=00:00:00.00 bitrate=N/A speed=   0x elapsed=0:00:28.12    \nframe=    2 fps=0.1 q=43.0 size=       1KiB time=00:00:00.04 bitrate= 107.9kbits/s speed=0.00145x elapsed=0:00:28.66    \nframe=    3 fps=0.1 q=40.0 size=       1KiB time=00:00:00.08 bitrate=  54.0kbits/s speed=0.00286x elapsed=0:00:29.18    \nframe=    4 fps=0.1 q=43.0 size=       1KiB time=00:00:00.12 bitrate=  36.0kbits/s speed=0.00421x elapsed=0:00:29.69    \nframe=    5 fps=0.2 q=38.0 size=       1KiB time=00:00:00.16 bitrate=  27.0kbits/s speed=0.00551x elapsed=0:00:30.23    \nframe=    7 fps=0.2 q=39.0 size=       1KiB time=00:00:00.20 bitrate=  21.6kbits/s speed=0.00677x elapsed=0:00:30.76    \nframe=    8 fps=0.3 q=39.0 size=       1KiB time=00:00:00.29 bitrate=  15.4kbits/s speed=0.00932x elapsed=0:00:31.30    \nframe=    8 fps=0.3 q=39.0 size=       1KiB time=00:00:00.29 bitrate=  15.4kbits/s speed=0.00917x elapsed=0:00:31.82    \nframe=    9 fps=0.3 q=34.0 size=       1KiB time=00:00:00.33 bitrate=  13.5kbits/s speed=0.0103x elapsed=0:00:32.34    \nframe=   10 fps=0.3 q=38.0 size=       1KiB time=00:00:00.37 bitrate=  12.0kbits/s speed=0.0114x elapsed=0:00:32.89    \nframe=   12 fps=0.4 q=38.0 size=       1KiB time=00:00:00.45 bitrate=   9.8kbits/s speed=0.0137x elapsed=0:00:33.40    \nframe=   13 fps=0.4 q=37.0 size=       1KiB time=00:00:00.50 bitrate=   9.0kbits/s speed=0.0147x elapsed=0:00:33.96    \nframe=   16 fps=0.5 q=38.0 size=       1KiB time=00:00:00.62 bitrate=   7.2kbits/s speed=0.0181x elapsed=0:00:34.52    \nframe=   17 fps=0.5 q=24.0 size=       1KiB time=00:00:00.66 bitrate=   6.7kbits/s speed=0.019x elapsed=0:00:35.09    \nframe=   18 fps=0.5 q=38.0 size=       1KiB time=00:00:00.70 bitrate=   6.3kbits/s speed=0.0199x elapsed=0:00:35.62    \nframe=   19 fps=0.5 q=39.0 size=       1KiB time=00:00:00.75 bitrate=   6.0kbits/s speed=0.0207x elapsed=0:00:36.17    \nframe=   20 fps=0.5 q=38.0 size=       1KiB time=00:00:00.79 bitrate=   5.7kbits/s speed=0.0216x elapsed=0:00:36.69    \nframe=   21 fps=0.6 q=38.0 size=       1KiB time=00:00:00.83 bitrate=   5.4kbits/s speed=0.0224x elapsed=0:00:37.21    \nframe=   22 fps=0.6 q=38.0 size=       1KiB time=00:00:00.87 bitrate=   5.1kbits/s speed=0.0232x elapsed=0:00:37.75    \nframe=   22 fps=0.6 q=38.0 size=       1KiB time=00:00:00.87 bitrate=   5.1kbits/s speed=0.0228x elapsed=0:00:38.36    \nframe=   23 fps=0.6 q=39.0 size=       1KiB time=00:00:00.91 bitrate=   4.9kbits/s speed=0.0236x elapsed=0:00:38.89    \nframe=   24 fps=0.6 q=38.0 size=       1KiB time=00:00:00.95 bitrate=   4.7kbits/s speed=0.0243x elapsed=0:00:39.40    \nframe=   25 fps=0.6 q=35.0 size=       1KiB time=00:00:01.00 bitrate=   4.5kbits/s speed=0.025x elapsed=0:00:39.92    \nframe=   26 fps=0.6 q=38.0 size=       1KiB time=00:00:01.04 bitrate=   4.3kbits/s speed=0.0257x elapsed=0:00:40.45    \nframe=   27 fps=0.7 q=38.0 size=       1KiB time=00:00:01.08 bitrate=   4.2kbits/s speed=0.0264x elapsed=0:00:40.98    \nframe=   28 fps=0.7 q=30.0 size=       1KiB time=00:00:01.12 bitrate=   4.0kbits/s speed=0.0271x elapsed=0:00:41.50    \nframe=   29 fps=0.7 q=38.0 size=       1KiB time=00:00:01.16 bitrate=   3.9kbits/s speed=0.0277x elapsed=0:00:42.05    \nframe=   30 fps=0.7 q=39.0 size=       1KiB time=00:00:01.20 bitrate=   3.7kbits/s speed=0.0283x elapsed=0:00:42.62    \nframe=   31 fps=0.7 q=37.0 size=       1KiB time=00:00:01.25 bitrate=   3.6kbits/s speed=0.029x elapsed=0:00:43.15    \nframe=   32 fps=0.7 q=39.0 size=       1KiB time=00:00:01.29 bitrate=   3.5kbits/s speed=0.0296x elapsed=0:00:43.66    \nframe=   33 fps=0.7 q=24.0 size=       1KiB time=00:00:01.33 bitrate=   3.4kbits/s speed=0.0302x elapsed=0:00:44.19    \nframe=   34 fps=0.8 q=41.0 size=       1KiB time=00:00:01.37 bitrate=   3.3kbits/s speed=0.0307x elapsed=0:00:44.77    \nframe=   35 fps=0.8 q=40.0 size=       1KiB time=00:00:01.41 bitrate=   3.2kbits/s speed=0.0312x elapsed=0:00:45.33    \nframe=   37 fps=0.8 q=38.0 size=       1KiB time=00:00:01.50 bitrate=   3.0kbits/s speed=0.0327x elapsed=0:00:45.92    \nframe=   38 fps=0.8 q=41.0 size=       1KiB time=00:00:01.54 bitrate=   2.9kbits/s speed=0.0332x elapsed=0:00:46.44    \nframe=   39 fps=0.8 q=40.0 size=       1KiB time=00:00:01.58 bitrate=   2.8kbits/s speed=0.0337x elapsed=0:00:47.02    \nframe=   39 fps=0.8 q=40.0 size=       1KiB time=00:00:01.58 bitrate=   2.8kbits/s speed=0.0333x elapsed=0:00:47.54    \nframe=   41 fps=0.9 q=35.0 size=       1KiB time=00:00:01.66 bitrate=   2.7kbits/s speed=0.0347x elapsed=0:00:48.08    \nframe=   43 fps=0.9 q=40.0 size=       1KiB time=00:00:01.75 bitrate=   2.6kbits/s speed=0.036x elapsed=0:00:48.62    \nframe=   44 fps=0.9 q=41.0 size=       1KiB time=00:00:01.79 bitrate=   2.5kbits/s speed=0.0365x elapsed=0:00:49.15    \nframe=   46 fps=0.9 q=41.0 size=       1KiB time=00:00:01.87 bitrate=   2.4kbits/s speed=0.0377x elapsed=0:00:49.70    \nframe=   46 fps=0.9 q=41.0 size=       1KiB time=00:00:01.87 bitrate=   2.4kbits/s speed=0.0373x elapsed=0:00:50.26    \nframe=   46 fps=0.9 q=41.0 size=       1KiB time=00:00:01.87 bitrate=   2.4kbits/s speed=0.0369x elapsed=0:00:50.85    \nframe=   47 fps=0.9 q=40.0 size=       1KiB time=00:00:01.91 bitrate=   2.3kbits/s speed=0.0373x elapsed=0:00:51.41    \nframe=   47 fps=0.9 q=40.0 size=       1KiB time=00:00:01.91 bitrate=   2.3kbits/s speed=0.0369x elapsed=0:00:51.98    \nframe=   47 fps=0.9 q=40.0 size=       1KiB time=00:00:01.91 bitrate=   2.3kbits/s speed=0.0365x elapsed=0:00:52.54    \nframe=   48 fps=0.9 q=41.0 size=       1KiB time=00:00:01.95 bitrate=   2.3kbits/s speed=0.0369x elapsed=0:00:53.13    \nframe=   49 fps=0.9 q=22.0 size=       1KiB time=00:00:02.00 bitrate=   2.2kbits/s speed=0.0372x elapsed=0:00:53.73    \nframe=   51 fps=0.9 q=40.0 size=       1KiB time=00:00:02.08 bitrate=   2.2kbits/s speed=0.0383x elapsed=0:00:54.32    \nframe=   51 fps=0.9 q=40.0 size=       1KiB time=00:00:02.08 bitrate=   2.2kbits/s speed=0.038x elapsed=0:00:54.86    \nframe=   53 fps=1.0 q=38.0 size=       1KiB time=00:00:02.16 bitrate=   2.1kbits/s speed=0.0391x elapsed=0:00:55.40    \nframe=   54 fps=1.0 q=42.0 size=       1KiB time=00:00:02.16 bitrate=   2.1kbits/s speed=0.0387x elapsed=0:00:55.95    \nframe=   54 fps=1.0 q=42.0 size=       1KiB time=00:00:02.20 bitrate=   2.0kbits/s speed=0.0391x elapsed=0:00:56.49    \nframe=   54 fps=0.9 q=42.0 size=       1KiB time=00:00:02.20 bitrate=   2.0kbits/s speed=0.0387x elapsed=0:00:57.10    \nframe=   55 fps=1.0 q=41.0 size=       1KiB time=00:00:02.25 bitrate=   2.0kbits/s speed=0.039x elapsed=0:00:57.66    \nframe=   56 fps=1.0 q=42.0 size=       1KiB time=00:00:02.29 bitrate=   2.0kbits/s speed=0.0394x elapsed=0:00:58.23    \nframe=   57 fps=1.0 q=34.0 size=       1KiB time=00:00:02.33 bitrate=   1.9kbits/s speed=0.0397x elapsed=0:00:58.80    \nframe=   59 fps=1.0 q=41.0 size=       1KiB time=00:00:02.41 bitrate=   1.9kbits/s speed=0.0407x elapsed=0:00:59.41    \nframe=   59 fps=1.0 q=41.0 size=       1KiB time=00:00:02.41 bitrate=   1.9kbits/s speed=0.0403x elapsed=0:00:59.99    \nframe=   59 fps=1.0 q=41.0 size=       1KiB time=00:00:02.41 bitrate=   1.9kbits/s speed=0.0399x elapsed=0:01:00.57    \nframe=   61 fps=1.0 q=39.0 size=       1KiB time=00:00:02.50 bitrate=   1.8kbits/s speed=0.0409x elapsed=0:01:01.15    \nframe=   62 fps=1.0 q=40.0 size=       1KiB time=00:00:02.54 bitrate=   1.8kbits/s speed=0.0412x elapsed=0:01:01.75    \nframe=   62 fps=1.0 q=40.0 size=       1KiB time=00:00:02.54 bitrate=   1.8kbits/s speed=0.0407x elapsed=0:01:02.39    \nframe=   64 fps=1.0 q=39.0 size=       1KiB time=00:00:02.62 bitrate=   1.7kbits/s speed=0.0417x elapsed=0:01:02.93    \nframe=   65 fps=1.0 q=24.0 size=       1KiB time=00:00:02.66 bitrate=   1.7kbits/s speed=0.042x elapsed=0:01:03.52    \nframe=   66 fps=1.0 q=42.0 size=       1KiB time=00:00:02.70 bitrate=   1.7kbits/s speed=0.0422x elapsed=0:01:04.15    \nframe=   67 fps=1.0 q=41.0 size=       1KiB time=00:00:02.75 bitrate=   1.6kbits/s speed=0.0425x elapsed=0:01:04.68    \nframe=   68 fps=1.0 q=42.0 size=       1KiB time=00:00:02.79 bitrate=   1.6kbits/s speed=0.0428x elapsed=0:01:05.22    \nframe=   69 fps=1.0 q=39.0 size=       1KiB time=00:00:02.83 bitrate=   1.6kbits/s speed=0.0431x elapsed=0:01:05.75    \nframe=   70 fps=1.1 q=42.0 size=       1KiB time=00:00:02.87 bitrate=   1.6kbits/s speed=0.0434x elapsed=0:01:06.30    \nframe=   70 fps=1.0 q=42.0 size=       1KiB time=00:00:02.87 bitrate=   1.6kbits/s speed=0.043x elapsed=0:01:06.89    \nframe=   71 fps=1.1 q=41.0 size=       1KiB time=00:00:02.91 bitrate=   1.5kbits/s speed=0.0432x elapsed=0:01:07.44    \nframe=   71 fps=1.0 q=41.0 size=       1KiB time=00:00:02.91 bitrate=   1.5kbits/s speed=0.0429x elapsed=0:01:07.99    \nframe=   72 fps=1.0 q=42.0 size=       1KiB time=00:00:02.95 bitrate=   1.5kbits/s speed=0.0431x elapsed=0:01:08.60    \nframe=   73 fps=1.1 q=35.0 size=       1KiB time=00:00:03.00 bitrate=   1.5kbits/s speed=0.0434x elapsed=0:01:09.18    \nframe=   75 fps=1.1 q=41.0 size=       1KiB time=00:00:03.08 bitrate=   1.5kbits/s speed=0.0442x elapsed=0:01:09.73    \nframe=   76 fps=1.1 q=42.0 size=       1KiB time=00:00:03.12 bitrate=   1.4kbits/s speed=0.0444x elapsed=0:01:10.30    \nframe=   77 fps=1.1 q=39.0 size=       1KiB time=00:00:03.16 bitrate=   1.4kbits/s speed=0.0447x elapsed=0:01:10.86    \nframe=   79 fps=1.1 q=41.0 size=       1KiB time=00:00:03.25 bitrate=   1.4kbits/s speed=0.0455x elapsed=0:01:11.43    \nframe=   79 fps=1.1 q=41.0 size=       1KiB time=00:00:03.25 bitrate=   1.4kbits/s speed=0.0452x elapsed=0:01:11.95    \nframe=   80 fps=1.1 q=42.0 size=       1KiB time=00:00:03.29 bitrate=   1.4kbits/s speed=0.0454x elapsed=0:01:12.48    \nframe=   81 fps=1.1 q=25.0 size=       1KiB time=00:00:03.29 bitrate=   1.4kbits/s speed=0.0451x elapsed=0:01:13.02    \nframe=   82 fps=1.1 q=42.0 size=       1KiB time=00:00:03.37 bitrate=   1.3kbits/s speed=0.0459x elapsed=0:01:13.57    \nframe=   83 fps=1.1 q=41.0 size=       1KiB time=00:00:03.41 bitrate=   1.3kbits/s speed=0.0461x elapsed=0:01:14.12    \nframe=   84 fps=1.1 q=42.0 size=       1KiB time=00:00:03.45 bitrate=   1.3kbits/s speed=0.0463x elapsed=0:01:14.75    \nframe=   85 fps=1.1 q=39.0 size=       1KiB time=00:00:03.50 bitrate=   1.3kbits/s speed=0.0465x elapsed=0:01:15.32    \nframe=   86 fps=1.1 q=42.0 size=       1KiB time=00:00:03.54 bitrate=   1.3kbits/s speed=0.0467x elapsed=0:01:15.87    \nframe=   86 fps=1.1 q=42.0 size=       1KiB time=00:00:03.54 bitrate=   1.3kbits/s speed=0.0464x elapsed=0:01:16.38    \nframe=   87 fps=1.1 q=41.0 size=       1KiB time=00:00:03.58 bitrate=   1.3kbits/s speed=0.0466x elapsed=0:01:16.90    \nframe=   88 fps=1.1 q=42.0 size=       1KiB time=00:00:03.62 bitrate=   1.2kbits/s speed=0.0468x elapsed=0:01:17.42    \nframe=   89 fps=1.1 q=35.0 size=       1KiB time=00:00:03.66 bitrate=   1.2kbits/s speed=0.047x elapsed=0:01:17.94    \nframe=   90 fps=1.1 q=42.0 size=       1KiB time=00:00:03.70 bitrate=   1.2kbits/s speed=0.0472x elapsed=0:01:18.50    \nframe=   92 fps=1.2 q=42.0 size=       1KiB time=00:00:03.79 bitrate=   1.2kbits/s speed=0.048x elapsed=0:01:19.02    \nframe=   93 fps=1.2 q=39.0 size=       1KiB time=00:00:03.83 bitrate=   1.2kbits/s speed=0.0481x elapsed=0:01:19.62    \nframe=   94 fps=1.2 q=39.0 size=       1KiB time=00:00:03.87 bitrate=   1.2kbits/s speed=0.0483x elapsed=0:01:20.16    \nframe=   96 fps=1.2 q=39.0 size=       1KiB time=00:00:03.95 bitrate=   1.1kbits/s speed=0.049x elapsed=0:01:20.76    \nframe=   97 fps=1.2 q=25.0 size=       1KiB time=00:00:04.00 bitrate=   1.1kbits/s speed=0.0492x elapsed=0:01:21.34    \nframe=   98 fps=1.2 q=42.0 size=       1KiB time=00:00:04.04 bitrate=   1.1kbits/s speed=0.0493x elapsed=0:01:21.94    \nframe=   99 fps=1.2 q=41.0 size=       1KiB time=00:00:04.08 bitrate=   1.1kbits/s speed=0.0495x elapsed=0:01:22.51    \nframe=  100 fps=1.2 q=42.0 size=       1KiB time=00:00:04.12 bitrate=   1.1kbits/s speed=0.0497x elapsed=0:01:23.03    \nframe=  101 fps=1.2 q=39.0 size=       1KiB time=00:00:04.16 bitrate=   1.1kbits/s speed=0.0498x elapsed=0:01:23.65    \nframe=  103 fps=1.2 q=41.0 size=       1KiB time=00:00:04.25 bitrate=   1.1kbits/s speed=0.0505x elapsed=0:01:24.21    \nframe=  104 fps=1.2 q=42.0 size=       1KiB time=00:00:04.29 bitrate=   1.0kbits/s speed=0.0506x elapsed=0:01:24.80    \nframe=  105 fps=1.2 q=35.0 size=       1KiB time=00:00:04.29 bitrate=   1.0kbits/s speed=0.0502x elapsed=0:01:25.41    \nframe=  106 fps=1.2 q=42.0 size=       1KiB time=00:00:04.37 bitrate=   1.0kbits/s speed=0.0508x elapsed=0:01:26.12    \nframe=  108 fps=1.2 q=42.0 size=       1KiB time=00:00:04.45 bitrate=   1.0kbits/s speed=0.0514x elapsed=0:01:26.71    \nframe=  109 fps=1.2 q=39.0 size=       1KiB time=00:00:04.45 bitrate=   1.0kbits/s speed=0.0511x elapsed=0:01:27.29    \nframe=  110 fps=1.3 q=40.0 size=       1KiB time=00:00:04.54 bitrate=   1.0kbits/s speed=0.0517x elapsed=0:01:27.87    \nframe=  112 fps=1.3 q=40.0 size=       1KiB time=00:00:04.62 bitrate=   1.0kbits/s speed=0.0523x elapsed=0:01:28.43    \nframe=  112 fps=1.3 q=40.0 size=       1KiB time=00:00:04.62 bitrate=   1.0kbits/s speed=0.052x elapsed=0:01:28.98    \nframe=  114 fps=1.3 q=41.0 size=       1KiB time=00:00:04.70 bitrate=   1.0kbits/s speed=0.0526x elapsed=0:01:29.56    \nframe=  115 fps=1.3 q=40.0 size=       1KiB time=00:00:04.75 bitrate=   0.9kbits/s speed=0.0527x elapsed=0:01:30.13    \nframe=  115 fps=1.3 q=40.0 size=       1KiB time=00:00:04.75 bitrate=   0.9kbits/s speed=0.0523x elapsed=0:01:30.73    \nframe=  117 fps=1.3 q=38.0 size=       1KiB time=00:00:04.79 bitrate=   0.9kbits/s speed=0.0525x elapsed=0:01:31.32    \nframe=  118 fps=1.3 q=41.0 size=       1KiB time=00:00:04.87 bitrate=   0.9kbits/s speed=0.053x elapsed=0:01:31.95    \nframe=  120 fps=1.3 q=41.0 size=       1KiB time=00:00:04.91 bitrate=   0.9kbits/s speed=0.0531x elapsed=0:01:32.59    \nframe=  120 fps=1.3 q=41.0 size=       1KiB time=00:00:04.95 bitrate=   0.9kbits/s speed=0.0532x elapsed=0:01:33.19    \nframe=  122 fps=1.3 q=41.0 size=       1KiB time=00:00:05.00 bitrate=   0.9kbits/s speed=0.0533x elapsed=0:01:33.73    \nframe=  123 fps=1.3 q=40.0 size=    1280KiB time=00:00:05.08 bitrate=2062.8kbits/s speed=0.0539x elapsed=0:01:34.29    \nframe=  123 fps=1.3 q=40.0 size=    1280KiB time=00:00:05.08 bitrate=2062.8kbits/s speed=0.0536x elapsed=0:01:34.85    \nframe=  124 fps=1.3 q=38.0 size=    1280KiB time=00:00:05.12 bitrate=2046.0kbits/s speed=0.0537x elapsed=0:01:35.39    \nframe=  125 fps=1.3 q=38.0 size=    1280KiB time=00:00:05.16 bitrate=2029.5kbits/s speed=0.0538x elapsed=0:01:35.95    \nframe=  126 fps=1.3 q=41.0 size=    1280KiB time=00:00:05.16 bitrate=2029.5kbits/s speed=0.0535x elapsed=0:01:36.49    \nframe=  127 fps=1.3 q=38.0 size=    1280KiB time=00:00:05.25 bitrate=1997.3kbits/s speed=0.0541x elapsed=0:01:37.09    \nframe=  131 fps=1.3 q=41.0 size=    1280KiB time=00:00:05.37 bitrate=1950.8kbits/s speed=0.055x elapsed=0:01:37.66    \nframe=  132 fps=1.3 q=42.0 size=    1280KiB time=00:00:05.41 bitrate=1935.8kbits/s speed=0.0552x elapsed=0:01:38.21    \nframe=  133 fps=1.3 q=39.0 size=    1280KiB time=00:00:05.50 bitrate=1906.5kbits/s speed=0.0557x elapsed=0:01:38.80    \nframe=  134 fps=1.3 q=40.0 size=    1280KiB time=00:00:05.54 bitrate=1892.2kbits/s speed=0.0557x elapsed=0:01:39.41    \nframe=  135 fps=1.4 q=37.0 size=    1280KiB time=00:00:05.58 bitrate=1878.0kbits/s speed=0.0559x elapsed=0:01:39.96    \nframe=  135 fps=1.3 q=37.0 size=    1280KiB time=00:00:05.58 bitrate=1878.0kbits/s speed=0.0555x elapsed=0:01:40.53    \nframe=  138 fps=1.4 q=42.0 size=    1280KiB time=00:00:05.70 bitrate=1836.9kbits/s speed=0.0565x elapsed=0:01:41.07    \nframe=  139 fps=1.4 q=40.0 size=    1280KiB time=00:00:05.75 bitrate=1823.6kbits/s speed=0.0566x elapsed=0:01:41.61    \nframe=  141 fps=1.4 q=37.0 size=    1280KiB time=00:00:05.79 bitrate=1810.5kbits/s speed=0.0567x elapsed=0:01:42.13    \nframe=  145 fps=1.4 q=26.0 size=    1280KiB time=00:00:06.00 bitrate=1747.6kbits/s speed=0.0584x elapsed=0:01:42.68    \nframe=  145 fps=1.4 q=26.0 size=    1280KiB time=00:00:06.00 bitrate=1747.6kbits/s speed=0.0581x elapsed=0:01:43.21    \nframe=  149 fps=1.4 q=40.0 size=    1280KiB time=00:00:06.16 bitrate=1700.4kbits/s speed=0.0594x elapsed=0:01:43.73    \nframe=  153 fps=1.5 q=37.0 size=    1280KiB time=00:00:06.33 bitrate=1655.6kbits/s speed=0.0606x elapsed=0:01:44.50    \nframe=  153 fps=1.5 q=37.0 size=    1280KiB time=00:00:06.33 bitrate=1655.6kbits/s speed=0.0601x elapsed=0:01:45.42    \nframe=  155 fps=1.5 q=42.0 size=    1280KiB time=00:00:06.33 bitrate=1655.6kbits/s speed=0.0595x elapsed=0:01:46.37    \nframe=  157 fps=1.5 q=40.0 size=    1280KiB time=00:00:06.50 bitrate=1613.2kbits/s speed=0.0607x elapsed=0:01:47.15    \nframe=  161 fps=1.5 q=30.0 size=    1280KiB time=00:00:06.58 bitrate=1592.8kbits/s speed=0.061x elapsed=0:01:47.90    \nframe=  162 fps=1.5 q=16.0 size=    1280KiB time=00:00:06.66 bitrate=1572.9kbits/s speed=0.0613x elapsed=0:01:48.71    \nframe=  162 fps=1.5 q=16.0 size=    1280KiB time=00:00:06.70 bitrate=1563.1kbits/s speed=0.0612x elapsed=0:01:49.60    \nframe=  162 fps=1.5 q=16.0 size=    1280KiB time=00:00:06.70 bitrate=1563.1kbits/s speed=0.0607x elapsed=0:01:50.50    \nframe=  162 fps=1.5 q=16.0 size=    1280KiB time=00:00:06.70 bitrate=1563.1kbits/s speed=0.0603x elapsed=0:01:51.26    \nframe=  162 fps=1.4 q=16.0 size=    1280KiB time=00:00:06.70 bitrate=1563.1kbits/s speed=0.0599x elapsed=0:01:51.91    \nframe=  162 fps=1.4 q=16.0 size=    1280KiB time=00:00:06.70 bitrate=1563.1kbits/s speed=0.0596x elapsed=0:01:52.60    \nframe=  162 fps=1.4 q=16.0 size=    1280KiB time=00:00:06.70 bitrate=1563.1kbits/s speed=0.0591x elapsed=0:01:53.42    \nframe=  164 fps=1.4 q=41.0 size=    1280KiB time=00:00:06.70 bitrate=1563.1kbits/s speed=0.0587x elapsed=0:01:54.19    \nframe=  166 fps=1.4 q=39.0 size=    1280KiB time=00:00:06.87 bitrate=1525.2kbits/s speed=0.0597x elapsed=0:01:55.11    \nframe=  170 fps=1.5 q=34.0 size=    1280KiB time=00:00:06.95 bitrate=1506.9kbits/s speed=0.0599x elapsed=0:01:56.11    \nframe=  170 fps=1.5 q=34.0 size=    1280KiB time=00:00:07.04 bitrate=1489.1kbits/s speed=0.0602x elapsed=0:01:56.96    \nframe=  170 fps=1.4 q=34.0 size=    1280KiB time=00:00:07.04 bitrate=1489.1kbits/s speed=0.0599x elapsed=0:01:57.48    \nframe=  172 fps=1.5 q=41.0 size=    1280KiB time=00:00:07.12 bitrate=1471.7kbits/s speed=0.0604x elapsed=0:01:58.01    \nframe=  174 fps=1.5 q=39.0 size=    1280KiB time=00:00:07.20 bitrate=1454.7kbits/s speed=0.0608x elapsed=0:01:58.54    \nframe=  174 fps=1.5 q=39.0 size=    1280KiB time=00:00:07.20 bitrate=1454.7kbits/s speed=0.0605x elapsed=0:01:59.06    \nframe=  178 fps=1.5 q=24.0 size=    1280KiB time=00:00:07.37 bitrate=1421.8kbits/s speed=0.0617x elapsed=0:01:59.60    \nframe=  178 fps=1.5 q=24.0 size=    1280KiB time=00:00:07.37 bitrate=1421.8kbits/s speed=0.0614x elapsed=0:02:00.12    \nframe=  180 fps=1.5 q=41.0 size=    1280KiB time=00:00:07.45 bitrate=1405.9kbits/s speed=0.0618x elapsed=0:02:00.64    \nframe=  182 fps=1.5 q=39.0 size=    1280KiB time=00:00:07.54 bitrate=1390.4kbits/s speed=0.0622x elapsed=0:02:01.19    \nframe=  182 fps=1.5 q=39.0 size=    1280KiB time=00:00:07.54 bitrate=1390.4kbits/s speed=0.062x elapsed=0:02:01.73    \nframe=  184 fps=1.5 q=41.0 size=    1280KiB time=00:00:07.62 bitrate=1375.2kbits/s speed=0.0624x elapsed=0:02:02.25    \nframe=  186 fps=1.5 q=34.0 size=    1280KiB time=00:00:07.70 bitrate=1360.3kbits/s speed=0.0627x elapsed=0:02:02.87    \nframe=  186 fps=1.5 q=34.0 size=    1280KiB time=00:00:07.70 bitrate=1360.3kbits/s speed=0.0625x elapsed=0:02:03.43    \nframe=  186 fps=1.5 q=34.0 size=    1280KiB time=00:00:07.70 bitrate=1360.3kbits/s speed=0.0622x elapsed=0:02:03.96    \nframe=  186 fps=1.5 q=34.0 size=    1280KiB time=00:00:07.70 bitrate=1360.3kbits/s speed=0.0619x elapsed=0:02:04.52    \nframe=  188 fps=1.5 q=41.0 size=    1280KiB time=00:00:07.79 bitrate=1345.8kbits/s speed=0.0623x elapsed=0:02:05.10    \nframe=  190 fps=1.5 q=39.0 size=    1280KiB time=00:00:07.87 bitrate=1331.5kbits/s speed=0.0627x elapsed=0:02:05.64    \nframe=  190 fps=1.5 q=39.0 size=    1280KiB time=00:00:07.87 bitrate=1331.5kbits/s speed=0.0624x elapsed=0:02:06.15    \nframe=  190 fps=1.5 q=39.0 size=    1280KiB time=00:00:07.87 bitrate=1331.5kbits/s speed=0.0622x elapsed=0:02:06.68    \nframe=  192 fps=1.5 q=36.0 size=    1280KiB time=00:00:07.95 bitrate=1317.6kbits/s speed=0.0626x elapsed=0:02:07.19    \nframe=  194 fps=1.5 q=24.0 size=    1280KiB time=00:00:08.04 bitrate=1303.9kbits/s speed=0.0629x elapsed=0:02:07.75    \nframe=  198 fps=1.5 q=37.0 size=    1280KiB time=00:00:08.20 bitrate=1277.5kbits/s speed=0.064x elapsed=0:02:08.28    \nframe=  198 fps=1.5 q=37.0 size=    1280KiB time=00:00:08.20 bitrate=1277.5kbits/s speed=0.0637x elapsed=0:02:08.80    \nframe=  200 fps=1.5 q=39.0 size=    1280KiB time=00:00:08.29 bitrate=1264.6kbits/s speed=0.0641x elapsed=0:02:09.34    \nframe=  202 fps=1.6 q=33.0 size=    1280KiB time=00:00:08.37 bitrate=1252.0kbits/s speed=0.0645x elapsed=0:02:09.86    \nframe=  202 fps=1.5 q=33.0 size=    1280KiB time=00:00:08.37 bitrate=1252.0kbits/s speed=0.0642x elapsed=0:02:10.42    \nframe=  202 fps=1.5 q=33.0 size=    1280KiB time=00:00:08.37 bitrate=1252.0kbits/s speed=0.064x elapsed=0:02:10.95    \nframe=  202 fps=1.5 q=33.0 size=    1280KiB time=00:00:08.37 bitrate=1252.0kbits/s speed=0.0637x elapsed=0:02:11.47    \nframe=  204 fps=1.5 q=39.0 size=    1280KiB time=00:00:08.45 bitrate=1239.7kbits/s speed=0.064x elapsed=0:02:12.09    \nframe=  206 fps=1.6 q=37.0 size=    1280KiB time=00:00:08.54 bitrate=1227.6kbits/s speed=0.0644x elapsed=0:02:12.63    \nframe=  206 fps=1.5 q=37.0 size=    1280KiB time=00:00:08.54 bitrate=1227.6kbits/s speed=0.0641x elapsed=0:02:13.19    \nframe=  208 fps=1.6 q=35.0 size=    1280KiB time=00:00:08.54 bitrate=1227.6kbits/s speed=0.0639x elapsed=0:02:13.76    \nframe=  208 fps=1.5 q=35.0 size=    1280KiB time=00:00:08.62 bitrate=1215.7kbits/s speed=0.0642x elapsed=0:02:14.34    \nframe=  210 fps=1.6 q=23.0 size=    1280KiB time=00:00:08.70 bitrate=1204.1kbits/s speed=0.0645x elapsed=0:02:14.94    \nframe=  210 fps=1.5 q=23.0 size=    1280KiB time=00:00:08.70 bitrate=1204.1kbits/s speed=0.0643x elapsed=0:02:15.49    \nframe=  212 fps=1.6 q=38.0 size=    1280KiB time=00:00:08.79 bitrate=1192.7kbits/s speed=0.0646x elapsed=0:02:16.08    \nframe=  214 fps=1.6 q=35.0 size=    1280KiB time=00:00:08.87 bitrate=1181.5kbits/s speed=0.065x elapsed=0:02:16.62    \nframe=  214 fps=1.6 q=35.0 size=    1280KiB time=00:00:08.87 bitrate=1181.5kbits/s speed=0.0647x elapsed=0:02:17.17    \nframe=  216 fps=1.6 q=40.0 size=    1280KiB time=00:00:08.95 bitrate=1170.5kbits/s speed=0.0651x elapsed=0:02:17.69    \nframe=  218 fps=1.6 q=30.0 size=    1280KiB time=00:00:09.04 bitrate=1159.7kbits/s speed=0.0654x elapsed=0:02:18.19    \nframe=  218 fps=1.6 q=30.0 size=    1280KiB time=00:00:09.04 bitrate=1159.7kbits/s speed=0.0652x elapsed=0:02:18.72    \nframe=  220 fps=1.6 q=40.0 size=    1280KiB time=00:00:09.12 bitrate=1149.1kbits/s speed=0.0655x elapsed=0:02:19.24    \nframe=  222 fps=1.6 q=39.0 size=    1280KiB time=00:00:09.20 bitrate=1138.7kbits/s speed=0.0659x elapsed=0:02:19.79    \nframe=  222 fps=1.6 q=39.0 size=    1280KiB time=00:00:09.20 bitrate=1138.7kbits/s speed=0.0656x elapsed=0:02:20.40    \nframe=  232 fps=1.6 q=39.0 size=    1280KiB time=00:00:09.54 bitrate=1098.9kbits/s speed=0.0677x elapsed=0:02:20.98    \n[out#0/matroska @ 000001f1c6168ec0] video:2354KiB audio:0KiB subtitle:0KiB other streams:0KiB global headers:0KiB muxing overhead: 0.073051%\nframe=  240 fps=1.7 q=35.0 Lsize=    2356KiB time=00:00:09.95 bitrate=1938.0kbits/s speed=0.0705x elapsed=0:02:21.32    \n",
  "seconds": 142.5254578590393,
  "probe_out": {}
}